<?xml version="1.0" encoding="UTF-8" standalone="no"?>
<svg width="808px" height="470px" viewBox="0 0 808 470" version="1.1" xmlns="http://www.w3.org/2000/svg" xmlns:xlink="http://www.w3.org/1999/xlink" xmlns:sketch="http://www.bohemiancoding.com/sketch/ns">
    <!-- Generator: Sketch 3.4.4 (17249) - http://www.bohemiancoding.com/sketch -->
    <title>eagle</title>
    <desc>Created with Sketch.</desc>
    <defs>
        <path id="path-1" d="M471.36,178.466 C462.148,174.887 425.791,192.286 425.791,192.286 C425.791,192.286 429.891,144.673 479.557,123.684 C517.563,107.617 554.031,109.536 571.601,111.332 C575.292,108.644 579.301,104.58 581.966,98.595 C588.107,84.765 592.713,81.185 600.911,77.594 C609.108,74.015 614.731,74.015 614.731,74.015 C614.731,74.015 596.812,72.48 590.151,75.551 C583.501,78.622 578.386,81.693 578.386,81.693 C578.386,81.693 574.286,99.611 555.342,101.148 C536.396,102.683 513.859,88.863 513.859,88.863 L535.379,93.469 C535.379,93.469 531.271,89.879 528.717,81.173 C526.155,72.48 527.182,67.365 527.182,67.365 C527.182,67.365 508.744,62.759 475.471,72.988 C442.186,83.228 432.972,87.327 411.452,86.819 C389.954,86.3 341.313,77.086 341.313,77.086 C341.313,77.086 404.294,88.863 448.848,74.015 C493.378,59.168 532.816,49.447 559.948,56.097 C587.08,62.747 580.431,75.551 580.431,75.551 C580.431,75.551 585.036,74.523 588.107,69.409 C591.178,64.283 587.08,61.211 587.08,61.211 C587.08,61.211 596.812,68.89 600.911,68.89 C604.998,68.89 609.616,66.338 609.616,66.338 C609.616,66.338 595.277,58.648 584.021,55.069 C572.751,51.49 563.019,52.506 563.019,52.506 C563.019,52.506 573.26,47.392 584.021,47.392 C594.769,47.392 626.507,65.818 626.507,65.818 C626.507,65.818 633.157,69.928 646.988,66.846 C660.819,63.775 664.907,57.632 664.907,57.632 C664.907,57.632 644.426,63.255 619.338,49.447 C594.249,35.604 571.205,25.883 571.205,25.883 C571.205,25.883 538.947,33.572 523.084,37.659 C507.209,41.758 490.307,39.195 490.307,39.195 L510.269,51.49 C510.269,51.49 493.378,44.321 462.667,43.812 C431.934,43.293 383.293,59.168 383.293,59.168 C383.293,59.168 436.043,35.616 461.64,31.517 C487.236,27.419 495.952,33.572 518.477,27.937 C541.002,22.292 552.27,18.216 552.27,18.216 C552.27,18.216 511.815,8.483 448.848,6.948 C385.867,5.401 377.67,14.615 337.215,18.194 C296.76,21.796 270.656,0.275 270.656,0.275 C270.656,0.275 277.317,18.973 280.388,22.552 C283.459,26.143 287.05,32.025 287.05,32.025 C287.05,32.025 237.89,32.533 201.534,42.266 C165.177,51.998 162.106,51.998 148.286,52.506 C134.467,53.026 105.788,42.266 105.788,42.266 C105.788,42.266 123.198,69.409 163.134,68.89 C203.069,68.381 243.513,63.255 243.513,63.255 C243.513,63.255 171.838,78.882 131.384,100.888 C90.94,122.916 0.31,143.657 0.31,143.657 C0.31,143.657 60.467,158.752 110.643,140.834 C160.831,122.916 225.063,96.292 283.956,102.694 C331.073,107.809 394.561,136.476 394.561,136.476 C394.561,136.476 314.69,117.033 282.94,118.049 C251.202,119.077 247.103,117.53 217.408,123.684 C187.713,129.826 175.949,136.995 175.949,136.995 C175.949,136.995 212.102,130.052 233.272,131.361 C266.568,133.405 321.848,153.886 321.848,153.886 C321.848,153.886 218.944,133.924 159.035,159.012 C99.126,184.089 11.577,239.911 11.577,239.911 C11.577,239.911 66.406,251.665 114.504,227.615 C166.724,201.511 229.444,179.494 334.922,184.608 C402.013,187.86 470.006,209.572 494.428,219.361 C490.927,210.396 479.15,181.492 471.36,178.466"></path>
    </defs>
    <g id="Page-1" stroke="none" stroke-width="1" fill="none" fill-rule="evenodd" sketch:type="MSPage">
        <g id="10457683" sketch:type="MSLayerGroup">
            <path d="M672.856,38.511 C672.856,38.511 674.393,61.544 697.426,64.604 C720.47,67.687 751.192,67.687 753.496,79.971 C755.799,92.255 747.342,95.338 747.342,95.338 C747.342,95.338 798.806,105.319 807.251,153.7 C815.695,202.081 743.515,295.015 743.515,295.015 C743.515,295.015 757.334,238.968 735.059,212.073 C712.78,185.19 697.426,195.182 697.426,195.182 L639.819,246.635 C639.819,246.635 635.214,265.84 653.663,307.31 C672.089,348.792 695.89,374.13 698.193,381.808 C700.497,389.484 688.212,383.343 664.411,369.512 C640.588,355.691 569.93,298.097 496.213,320.362 C422.473,342.64 313.403,462.446 313.403,462.446 C313.403,462.446 311.112,454.768 313.403,441.716 C315.729,428.652 318.033,424.045 318.033,424.045 C318.033,424.045 298.816,430.187 259.659,454 C220.48,477.812 107.584,467.819 107.584,467.819 L154.43,391.788 C154.43,391.788 126.022,393.335 103.745,390.252 C81.469,387.182 67.648,385.645 67.648,385.645 C67.648,385.645 91.45,344.942 109.131,324.202 C126.79,303.472 142.913,295.015 142.913,295.015 C142.913,295.015 99.139,300.4 63.042,295.015 C26.935,289.641 21.571,286.559 21.571,286.559 C21.571,286.559 49.222,242.795 61.507,228.207 C73.79,213.608 83.004,209.77 83.004,209.77 C83.004,209.77 57.667,202.86 31.552,192.1 C5.436,181.351 0.062,174.441 0.062,174.441 L150.591,109.146 C150.591,109.146 132.932,94.559 127.557,80.75 C122.183,66.919 123.719,35.429 123.719,35.429 C123.719,35.429 171.331,66.151 206.661,60.009 C241.978,53.856 300.363,40.803 300.363,40.803 C300.363,40.803 298.06,33.893 297.28,24.669 C296.513,15.467 301.887,0.1 301.887,0.1 C301.887,0.1 349.511,28.519 398.671,23.144 C447.82,17.77 507.719,10.081 564.557,20.062 C621.393,30.055 672.856,38.511 672.856,38.511" id="Fill-1" fill="#0A0B09" sketch:type="MSShapeGroup"></path>
            <path d="M589.396,285.282 C569.004,266.631 547.925,255.43 536.352,250.135 C534.5,249.705 532.705,249.299 531.021,248.948 C516.694,245.866 487.507,243.823 487.507,243.823 C487.507,243.823 567.898,273.518 600.663,299.113 C604.028,301.744 607.37,304.374 610.69,306.961 C605.609,301.056 598.732,293.841 589.396,285.282" id="Fill-2" fill="#7F807D" sketch:type="MSShapeGroup"></path>
            <path d="M524.36,207.466 C515.148,203.887 478.791,221.286 478.791,221.286 C478.791,221.286 482.891,173.673 532.557,152.684 C570.563,136.617 607.031,138.536 624.601,140.332 C628.292,137.644 632.301,133.58 634.966,127.595 C641.107,113.765 645.713,110.185 653.911,106.594 C662.108,103.015 667.731,103.015 667.731,103.015 C667.731,103.015 649.812,101.48 643.151,104.551 C636.501,107.622 631.386,110.693 631.386,110.693 C631.386,110.693 627.286,128.611 608.342,130.148 C589.396,131.683 566.859,117.863 566.859,117.863 L588.379,122.469 C588.379,122.469 584.271,118.879 581.717,110.173 C579.155,101.48 580.182,96.365 580.182,96.365 C580.182,96.365 561.744,91.759 528.471,101.988 C495.186,112.228 485.972,116.327 464.452,115.819 C442.954,115.3 394.313,106.086 394.313,106.086 C394.313,106.086 457.294,117.863 501.848,103.015 C546.378,88.168 585.816,78.447 612.948,85.097 C640.08,91.747 633.431,104.551 633.431,104.551 C633.431,104.551 638.036,103.523 641.107,98.409 C644.178,93.283 640.08,90.211 640.08,90.211 C640.08,90.211 649.812,97.89 653.911,97.89 C657.998,97.89 662.616,95.338 662.616,95.338 C662.616,95.338 648.277,87.648 637.021,84.069 C625.751,80.49 616.019,81.506 616.019,81.506 C616.019,81.506 626.26,76.392 637.021,76.392 C647.769,76.392 679.507,94.818 679.507,94.818 C679.507,94.818 686.157,98.928 699.988,95.846 C713.819,92.775 717.907,86.632 717.907,86.632 C717.907,86.632 697.426,92.255 672.338,78.447 C647.249,64.604 624.205,54.883 624.205,54.883 C624.205,54.883 591.947,62.572 576.084,66.659 C560.209,70.758 543.307,68.195 543.307,68.195 L563.269,80.49 C563.269,80.49 546.378,73.321 515.667,72.812 C484.934,72.293 436.293,88.168 436.293,88.168 C436.293,88.168 489.043,64.616 514.64,60.517 C540.236,56.419 548.952,62.572 571.477,56.937 C594.002,51.292 605.27,47.216 605.27,47.216 C605.27,47.216 564.815,37.483 501.848,35.948 C438.867,34.401 430.67,43.615 390.215,47.194 C349.76,50.796 323.656,29.275 323.656,29.275 C323.656,29.275 330.317,47.973 333.388,51.552 C336.459,55.143 340.05,61.025 340.05,61.025 C340.05,61.025 290.89,61.533 254.534,71.266 C218.177,80.998 215.106,80.998 201.286,81.506 C187.467,82.026 158.788,71.266 158.788,71.266 C158.788,71.266 176.198,98.409 216.134,97.89 C256.069,97.381 296.513,92.255 296.513,92.255 C296.513,92.255 224.838,107.882 184.384,129.888 C143.94,151.916 53.31,172.657 53.31,172.657 C53.31,172.657 113.467,187.752 163.643,169.834 C213.831,151.916 278.063,125.292 336.956,131.694 C384.073,136.809 447.561,165.476 447.561,165.476 C447.561,165.476 367.69,146.033 335.94,147.049 C304.202,148.077 300.103,146.53 270.408,152.684 C240.713,158.826 228.949,165.995 228.949,165.995 C228.949,165.995 265.102,159.052 286.272,160.361 C319.568,162.405 374.848,182.886 374.848,182.886 C374.848,182.886 271.944,162.924 212.035,188.012 C152.126,213.089 64.577,268.911 64.577,268.911 C64.577,268.911 119.406,280.665 167.504,256.615 C219.724,230.511 282.444,208.494 387.922,213.608 C455.013,216.86 523.006,238.572 547.428,248.361 C543.927,239.396 532.15,210.492 524.36,207.466" id="Fill-3" fill="#FFFFFF" sketch:type="MSShapeGroup"></path>
            <path d="M790.359,152.932 C784.206,108.898 727.12,106.086 727.12,106.086 C727.12,106.086 734.797,103.015 734.797,96.873 C734.797,90.731 724.05,88.676 720.977,91.747 C717.907,94.818 718.415,102.507 696.408,105.07 C674.393,107.622 647.769,117.863 648.277,130.148 C648.785,142.443 663.644,141.415 663.644,141.415 C663.644,141.415 662.616,142.443 651.855,145.005 C645.713,146.462 634.739,146.259 626.452,145.808 C618.13,145.92 606.365,146.033 590.932,146.033 C556.629,146.033 524.36,156.263 504.918,177.264 C485.452,198.253 487.507,211.045 487.507,211.045 C487.507,211.045 498.765,204.384 510.541,200.308 C522.329,196.198 528.471,197.745 528.471,197.745 L566.521,257.101 C567.74,257.767 568.405,258.162 568.405,258.162 C568.405,258.162 567.604,257.935 566.193,257.574 C578.173,266.585 599.896,283.973 618.074,304.239 C627.514,314.763 634.22,323.016 638.984,329.305 C654.16,341.374 664.659,349.81 664.659,349.81 C664.659,349.81 651.358,315.496 613.456,282.73 C575.564,249.965 548.952,209.51 548.952,209.51 C548.952,209.51 570.449,226.931 576.084,229.991 C581.717,233.062 583.772,234.09 583.772,234.09 C583.773,234.09 563.269,214.116 563.799,194.154 C564.309,174.181 575.564,165.995 575.564,165.995 C575.564,165.995 561.225,164.968 540.236,172.657 C519.245,180.323 509.524,190.575 509.524,190.575 C509.524,190.575 516.186,171.618 549.968,160.869 C583.772,150.121 632.91,157.29 632.91,157.29 C632.91,157.29 635.462,162.405 659.534,164.46 C683.605,166.503 684.126,153.7 684.126,153.7 C684.126,153.7 695.89,163.432 704.595,163.432 C713.3,163.432 716.371,160.361 716.371,160.361 C716.371,160.361 735.826,160.869 747.094,178.28 C758.361,195.69 762.709,241.26 762.709,241.26 C762.709,241.26 796.501,196.977 790.359,152.932" id="Fill-4" fill="#C97930" sketch:type="MSShapeGroup"></path>
            <path d="M755.799,143.978 C755.799,143.978 752.727,137.317 745.05,131.174 C737.372,125.032 726.611,123.486 726.611,123.486 C726.611,123.486 728.148,128.103 723.033,131.683 C717.907,135.273 702.553,124.524 702.553,124.524 C702.553,124.524 696.408,123.486 697.945,133.218 C698.667,137.78 701.016,139.36 701.016,139.36 C701.016,139.36 692.3,137.825 693.338,125.54 C694.354,113.256 703.568,118.879 710.738,114.792 C717.907,110.693 713.3,105.07 713.3,105.07 L719.442,112.228 C719.442,112.228 734.301,114.284 743.515,124.005 C752.727,133.738 755.799,143.978 755.799,143.978" id="Fill-5" fill="#0A0B09" sketch:type="MSShapeGroup"></path>
            <path d="M570.697,203.244 C570.697,203.244 586.076,216.295 596.825,232.419 C607.573,248.565 613.716,261.989 613.716,261.989 L582.226,237.421 C582.226,237.421 589.902,246.635 607.957,265.84 C626,285.033 638.284,298.865 638.284,298.865 C638.284,298.865 630.223,271.982 610.646,242.027 C591.045,212.073 570.697,203.244 570.697,203.244" id="Fill-6" fill="#AF522D" sketch:type="MSShapeGroup"></path>
            <path d="M125.006,374.39 C125.006,374.39 180.556,370.29 228.926,344.175 C277.318,318.06 301.12,279.66 361.796,265.061 C422.473,250.473 437.071,252.776 437.071,252.776 C437.071,252.776 321.093,248.17 242.757,287.337 C164.411,326.505 125.006,374.39 125.006,374.39" id="Fill-7" fill="#7F807D" sketch:type="MSShapeGroup"></path>
            <path d="M614.178,104.438 C614.687,105.352 615.004,106.38 615.004,107.498 C615.004,111.032 612.136,113.899 608.591,113.899 C605.056,113.899 602.188,111.032 602.188,107.498 C602.188,104.698 603.995,102.349 606.49,101.469 L599.5,98.793 C599.5,98.793 591.823,116.451 607.957,119.139 C618.582,120.923 619.474,106.47 619.474,106.47 L614.178,104.438" id="Fill-8" fill="#AF522D" sketch:type="MSShapeGroup"></path>
            <path d="M492.363,317.292 C492.363,317.292 454.742,334.193 457.802,382.575 C460.873,430.968 498.505,427.117 498.505,427.117 C498.505,427.117 471.633,456.315 427.847,448.625 C384.073,440.948 368.706,401.002 368.706,401.002 C368.706,401.002 398.671,368.744 433.233,342.64 C467.794,316.512 492.363,317.292 492.363,317.292" id="Fill-9" fill="#0A0B09" sketch:type="MSShapeGroup"></path>
            <path d="M97.603,374.13 C97.603,374.13 178.501,282.223 281.417,258.162 C375.864,236.065 473.936,241.26 473.936,241.26 C473.936,241.26 330.565,223.33 256.317,247.91 C143.647,285.214 97.603,374.13 97.603,374.13" id="Fill-10" fill="#B6B6B2" sketch:type="MSShapeGroup"></path>
            <path d="M403.267,271.214 C403.267,271.214 339.824,281.127 288.835,326.505 C225.855,382.575 182.081,387.949 182.081,387.949 L143.681,448.625 C143.681,448.625 214.282,460.447 271.944,384.878 C328.781,310.381 403.267,271.214 403.267,271.214" id="Fill-11" fill="#494946" sketch:type="MSShapeGroup"></path>
            <g id="Group-15" transform="translate(53.000000, 29.000000)">
                <mask id="mask-2" sketch:name="Clip 13" fill="white">
                    <use xlink:href="#path-1"></use>
                </mask>
                <g id="Clip-13"></g>
                <path d="M552.27,18.216 C552.27,18.216 460.103,7.197 404.802,20.248 C349.51,33.312 301.118,27.937 301.118,27.937 C301.118,27.937 302.405,35.107 310.083,40.741 C317.761,46.364 326.974,47.392 326.974,47.392 C326.974,47.392 300.35,41.758 265.033,41.25 C229.693,40.741 167.232,61.211 167.232,61.211 C167.232,61.211 197.955,62.759 225.605,59.676 C253.245,56.606 285.514,53.026 285.514,53.026 C285.514,53.026 257.852,66.338 208.195,81.185 C158.516,96.032 119.088,121.64 119.088,121.64 C119.088,121.64 196.407,85.803 275.262,89.89 C354.117,93.989 419.649,149.28 419.649,149.28 C419.649,149.28 356.172,132.897 311.619,129.826 C267.077,126.755 265.033,127.782 265.033,127.782 C265.033,127.782 298.815,135.968 323.394,149.28 C347.975,162.591 352.582,168.745 352.582,168.745 C352.582,168.745 283.459,148.264 221.496,155.941 C159.554,163.619 104.771,209.189 104.771,209.189 C104.771,209.189 191.304,171.805 298.815,174.368 C406.326,176.931 416.579,178.974 416.579,178.974 C416.579,178.974 423.748,142.629 467.771,121.121 C511.815,99.611 575.823,113.443 575.823,113.443 C575.823,113.443 500.548,185.636 505.164,210.216 C509.771,234.784 502.591,226.599 502.591,226.599 C502.591,226.599 300.35,171.805 189.757,209.189 C79.164,246.56 51.005,252.703 26.425,250.66 C1.845,248.615 1.337,247.577 1.337,246.053 C1.337,244.518 15.168,211.74 25.917,203.046 C36.666,194.341 68.415,177.958 68.415,177.958 C68.415,177.958 21.818,165.154 -2.242,155.433 C-26.315,145.701 -28.877,142.629 -28.877,142.629 L121.143,83.748 C121.143,83.748 91.449,45.856 89.913,39.714 C88.377,33.572 123.695,42.266 136.498,41.758 C149.302,41.25 264.514,21.796 264.514,21.796 C264.514,21.796 258.868,-6.883 259.387,-8.419 C259.907,-9.954 308.028,9.5 361.287,6.937 C414.523,4.374 448.836,-8.419 499.023,1.303 C549.198,11.036 552.27,18.216 552.27,18.216" id="Fill-12" fill="#B6B6B2" sketch:type="MSShapeGroup" mask="url(#mask-2)"></path>
                <path d="M350.019,78.114 C350.019,78.114 387.402,92.961 420.687,91.426 C453.962,89.879 475.46,78.114 496.968,76.567 C509.319,75.698 514.875,76.07 514.875,76.07 L516.93,83.748 L498.503,83.748 C498.503,83.748 524.608,103.19 550.724,103.19 C576.84,103.19 578.894,80.146 578.894,80.146 L590.67,70.425 L615.759,68.89 C615.759,68.89 600.2,59.01 581.966,54.55 C558.92,48.916 522.056,48.419 483.148,59.168 C444.228,69.917 441.666,74.523 411.972,77.594 C382.276,80.677 350.019,78.114 350.019,78.114" id="Fill-14" fill="#B6B6B2" sketch:type="MSShapeGroup" mask="url(#mask-2)"></path>
            </g>
        </g>
    </g>
</svg>